HIERARCHY
ROOT Hips
{
	OFFSET	0.00	0.00	0.00
	CHANNELS 6 Xposition Yposition Zposition Zrotation Xrotation Yrotation
	JOINT LeftUpLeg
	{
		OFFSET	 0.126116	-0.065224	 0.014019
		CHANNELS 3 Zrotation Xrotation Yrotation
		JOINT LeftLeg
		{
			OFFSET	 0.000000	 0.569914	 0.000000
			CHANNELS 3 Zrotation Xrotation Yrotation
			JOINT LeftFoot
			{
				OFFSET	 0.000000	 0.544423	 0.000000
				CHANNELS 3 Zrotation Xrotation Yrotation
				JOINT LeftToeBase
				{
					OFFSET	 0.000000	 0.207117	 0.000000
					CHANNELS 3 Zrotation Xrotation Yrotation
					End Site
					{
						OFFSET	 0.000000	 0.207117	 0.000000
					}
				}
			}
		}
	}
	JOINT RightUpLeg
	{
		OFFSET	-0.124023	-0.065224	 0.008373
		CHANNELS 3 Zrotation Xrotation Yrotation
		JOINT RightLeg
		{
			OFFSET	 0.000000	 0.570047	 0.000000
			CHANNELS 3 Zrotation Xrotation Yrotation
			JOINT RightFoot
			{
				OFFSET	 0.000000	 0.544354	 0.000000
				CHANNELS 3 Zrotation Xrotation Yrotation
				JOINT RightToeBase
				{
					OFFSET	 0.000000	 0.207540	 0.000000
					CHANNELS 3 Zrotation Xrotation Yrotation
					End Site
					{
						OFFSET	 0.000000	 0.207540	 0.000000
					}
				}
			}
		}
	}
	JOINT Spine
	{
		OFFSET	 0.000184	 0.117403	 0.007763
		CHANNELS 3 Zrotation Xrotation Yrotation
		JOINT Spine1
		{
			OFFSET	 0.000000	 0.137269	 0.000000
			CHANNELS 3 Zrotation Xrotation Yrotation
			JOINT Spine2
			{
				OFFSET	 0.000000	 0.156879	 0.000000
				CHANNELS 3 Zrotation Xrotation Yrotation
				JOINT LeftShoulder
				{
					OFFSET	 0.080501	 0.160143	 0.002496
					CHANNELS 3 Zrotation Xrotation Yrotation
					JOINT LeftArm
					{
						OFFSET	 0.000000	 0.164363	 0.000000
						CHANNELS 3 Zrotation Xrotation Yrotation
						JOINT LeftForeArm
						{
							OFFSET	 0.000000	 0.364576	 0.000000
							CHANNELS 3 Zrotation Xrotation Yrotation
							JOINT LeftHand
							{
								OFFSET	 0.000000	 0.360812	 0.000000
								CHANNELS 3 Zrotation Xrotation Yrotation
								JOINT LeftHandIndex1
								{
									OFFSET	 0.000000	 0.086006	 0.000000
									CHANNELS 3 Zrotation Xrotation Yrotation
									JOINT LeftHandIndex2
									{
										OFFSET	 0.000000	 0.047237	 0.000000
										CHANNELS 3 Zrotation Xrotation Yrotation
										JOINT LeftHandIndex3
										{
											OFFSET	-0.004284	 0.038165	 0.000551
											CHANNELS 3 Zrotation Xrotation Yrotation
											End Site
											{
												OFFSET	-0.004284	 0.038165	 0.000551
											}
										}
									}
								}
							}
						}
					}
				}
				JOINT Neck
				{
					OFFSET	 0.000000	 0.176489	 0.000000
					CHANNELS 3 Zrotation Xrotation Yrotation
					JOINT Head
					{
						OFFSET	 0.000000	 0.077941	 0.001747
						CHANNELS 3 Zrotation Xrotation Yrotation
						End Site
						{
							OFFSET	 0.000000	 0.077941	 0.001747
						}
					}
				}
				JOINT RightShoulder
				{
					OFFSET	-0.080363	 0.159706	-0.000306
					CHANNELS 3 Zrotation Xrotation Yrotation
					JOINT RightArm
					{
						OFFSET	 0.000000	 0.164196	 0.000000
						CHANNELS 3 Zrotation Xrotation Yrotation
						JOINT RightForeArm
						{
							OFFSET	 0.000000	 0.365611	 0.000000
							CHANNELS 3 Zrotation Xrotation Yrotation
							JOINT RightHand
							{
								OFFSET	 0.000000	 0.360648	 0.000000
								CHANNELS 3 Zrotation Xrotation Yrotation
								JOINT RightHandIndex1
								{
									OFFSET	 0.000000	 0.069977	 0.000000
									CHANNELS 3 Zrotation Xrotation Yrotation
									JOINT RightHandIndex2
									{
										OFFSET	 0.000000	 0.052305	 0.000000
										CHANNELS 3 Zrotation Xrotation Yrotation
										JOINT RightHandIndex3
										{
											OFFSET	 0.009002	 0.042196	 0.000782
											CHANNELS 3 Zrotation Xrotation Yrotation
											End Site
											{
												OFFSET	 0.009002	 0.042196	 0.000782
											}
										}
									}
								}
							}
						}
					}
				}
			}
		}
	}
}
MOTION
Frames:    10
Frame Time: 0.03333334
 0.674602	 1.135032	-0.171018	 16.383120	-8.462051	-66.823450	-168.354300	 11.493660	-46.668850	 7.961305	-56.349190	 13.517420	 48.604890	 51.974850	-78.394440	 1.821519	 39.790870	-6.487745	 121.507400	 31.317280	 76.052530	-6.601978	-53.144100	-7.586552	-64.626550	 45.315980	 68.669210	-1.649826	 33.371560	 2.851319	-1.964179	 7.899537	 35.507510	-11.738790	-3.212267	 1.348257	 13.790970	 14.559430	 10.049100	-101.520600	-0.097054	 91.517070	 64.370650	 36.454100	-50.405730	 4.677722	-0.214043	 3.692291	-48.497250	 12.992490	 30.535230	-2.525017	 11.816920	-7.792711	-7.024794	 8.161201	 2.028759	 4.963066	-4.014628	-0.346955	 15.948480	 2.157279	-0.345529	-2.265857	 3.511090	-43.371380	 88.646690	 0.617019	-91.747010	-28.286450	-4.503378	 90.566140	-5.122750	-0.506992	 6.023873	-8.530183	 46.303700	-5.905420	-2.912682	 16.665000	-2.569802	 14.319240	 22.446440	-6.626113	-8.239867	-2.131385	 0.447455
 0.742715	 1.141913	-0.160708	 13.875440	-5.043198	-54.818180	-170.093200	 11.833270	-38.448140	 6.093215	-49.022480	 10.534090	 64.244470	 52.895520	-96.228870	 1.988628	 32.726360	-7.467106	 123.848200	 22.477920	 82.489710	-5.342366	-47.211730	-6.049170	-60.555920	 43.626030	 63.023490	-1.696622	 33.197490	 2.961642	-1.581453	 6.494863	 31.270820	-6.078177	 0.759266	 1.833461	 7.496053	 8.818196	 6.845751	-101.551600	-2.241457	 93.842970	 65.946950	 31.514110	-49.824150	 6.092421	-0.192769	 11.245980	-38.519390	 10.780210	 27.477280	-3.263129	 14.925440	-7.393447	-7.067439	 8.299029	 2.055132	 4.963066	-4.014628	-0.346955	 16.801220	-2.806915	-2.678547	-1.510723	-0.827368	-45.021350	 87.857190	-3.412765	-91.149670	-24.624800	-4.071043	 94.400240	-6.121474	-0.661054	-2.198080	-7.791502	 28.932270	-5.892127	-2.910724	 16.542810	-2.781317	 14.352280	 22.894570	-6.758908	-8.239867	-2.131385	 0.447455
 0.816750	 1.148132	-0.154360	 11.508590	-2.821209	-45.015350	-171.373500	 16.294970	-31.756300	 6.190942	-49.471300	 10.430070	 79.227390	 49.585350	-105.340000	 1.397950	 23.660700	-7.473988	 127.265800	 17.961330	 85.718400	-4.653543	-43.269890	-4.943011	-58.624890	 42.716110	 59.712400	-1.772018	 32.844980	 3.153942	-1.430317	 5.390081	 25.146810	-0.834319	 3.782508	 1.282496	 1.727746	 5.270067	 3.346912	-101.946700	-4.226999	 96.999790	 67.464420	 25.823960	-49.899460	 7.408442	-0.168224	 18.273990	-27.952540	 6.662227	 25.397340	-4.201531	 14.407420	-7.106752	-7.110649	 8.441777	 2.081730	 4.963066	-4.014628	-0.346955	 16.360720	-8.295841	-5.205675	 0.499652	-4.588136	-46.118350	 87.422230	-6.564470	-90.662030	-22.545480	-2.907959	 94.693530	-7.289327	-0.790015	-9.926199	-7.604741	 9.618505	-1.077933	-2.908975	 16.424710	-2.985693	 14.369090	 23.258630	-6.863613	-8.239867	-2.131385	 0.447455
 0.874239	 1.174349	-0.143442	 9.258657	-2.571948	-41.621310	-173.948500	 15.925080	-28.913420	 5.436977	-45.781630	 8.598075	 77.418520	 49.119070	-99.310400	 1.397986	 23.660680	-7.474006	 136.851800	 24.132530	 67.895970	-5.254918	-46.740810	-5.161218	-58.447900	 47.584760	 63.927750	-1.900146	 31.923700	 3.581557	-0.933826	 5.260468	 17.244980	-2.678770	 3.119763	 0.675798	 2.774703	 5.033520	 1.168969	-105.460100	-10.577350	 99.009980	 68.317220	 21.761640	-47.681670	 8.591271	-0.144104	 24.716020	-25.619490	 4.103458	 19.052690	-5.360169	 15.210300	-6.630638	-7.155955	 8.598805	 2.110637	 4.963066	-4.014628	-0.346955	 14.809640	-8.016068	-8.293660	 1.988273	-2.579181	-45.865430	 88.295120	-3.236341	-91.155180	-18.342340	-3.165291	 84.917530	-8.480696	-0.863085	-17.387190	 0.656009	 1.524189	 8.394296	-2.907098	 16.308770	-3.186347	 14.381560	 23.595900	-6.959632	-8.239867	-2.131385	 0.447455
 0.919120	 1.200297	-0.132382	 6.648040	-2.813724	-39.622870	-175.575600	 13.319220	-26.967920	 4.615176	-41.111660	 6.716897	 74.560500	 48.929050	-93.241710	 1.398012	 23.660650	-7.474021	 147.566800	 26.044110	 53.014860	-4.725444	-43.707560	-4.345847	-56.014080	 49.211980	 62.940340	-1.823451	 30.799390	 3.718122	-0.489061	 5.091294	 8.370324	-3.020845	 2.217849	-0.133545	 2.469512	 4.381877	-0.412202	-107.947100	-16.217390	 100.588500	 70.089690	 18.465700	-47.725960	 9.613862	-0.123350	 30.386880	-25.975560	-0.073090	 13.256630	-6.297446	 15.588300	-6.256001	-7.200473	 8.756737	 2.140391	 4.963066	-4.014628	-0.346955	 12.946110	-8.217856	-10.665160	 2.444150	-0.585548	-45.249840	 89.627950	-0.466536	-91.660410	-16.016340	-2.857542	 76.595290	-9.544397	-0.915156	-23.752170	 5.381167	-2.240277	 17.183920	-2.905332	 16.196490	-3.380642	 14.394250	 23.922470	-7.052895	-8.239867	-2.131385	 0.447455
 0.953822	 1.224040	-0.121797	 3.777610	-3.392609	-39.030640	-176.289600	 8.908425	-26.026300	 3.769454	-35.490720	 4.767636	 70.603460	 48.940320	-86.969270	 1.398028	 23.660640	-7.474030	 155.345900	 23.216370	 42.764310	-3.611496	-36.162770	-2.837326	-49.110940	 48.261860	 56.641820	-1.558707	 29.481360	 3.580402	-0.156798	 4.811671	-0.737574	-2.280097	 1.608567	-0.735925	 1.014297	 3.129023	-1.344880	-109.469700	-21.091410	 101.924700	 72.641880	 15.949690	-49.831100	 10.464770	-0.108433	 35.199590	-29.010600	-6.071531	 8.021296	-7.004792	 15.552600	-5.996626	-7.244013	 8.914806	 2.170834	 4.963066	-4.014628	-0.346955	 10.752160	-8.903703	-12.354790	 1.826436	 1.430621	-44.208990	 91.401750	 1.738347	-92.190430	-14.924070	-2.387409	 69.532880	-10.436860	-0.994926	-28.683610	 6.265878	-2.386446	 23.974570	-2.903651	 16.088320	-3.567795	 14.407040	 24.237020	-7.142997	-8.239867	-2.131385	 0.447455
 0.976117	 1.241720	-0.113375	 1.569725	-3.835706	-38.888680	-176.741600	 5.005245	-25.645000	 3.082734	-30.254250	 2.915116	 66.860270	 48.997280	-81.318250	 1.398039	 23.660630	-7.474036	 160.955600	 19.413280	 34.652110	-2.658875	-28.291920	-1.432576	-42.690830	 46.680030	 50.743340	-1.344258	 28.357190	 3.470325	 0.072884	 4.475622	-9.701498	-0.840592	 1.989172	-1.460766	-0.807782	 1.526810	-1.999959	-110.712800	-25.362860	 102.863700	 75.108950	 14.260480	-51.520610	 11.180100	-0.098480	 39.225590	-32.105660	-9.933328	 2.628025	-7.543504	 15.576040	-5.788492	-7.283306	 9.045810	 2.196515	 4.963066	-4.014628	-0.346955	 8.713121	-9.503022	-13.694050	 1.247866	 2.993747	-43.212450	 92.785240	 3.827928	-92.750490	-14.052050	-1.890698	 63.627290	-11.173370	-1.074301	-32.697630	 5.964010	-2.637241	 30.196130	-2.902189	 15.982270	-3.751210	 14.420140	 24.545350	-7.231600	-8.239867	-2.131385	 0.447455
 0.985176	 1.249029	-0.107624	 1.227319	-3.969303	-40.183030	-177.566000	 3.357289	-27.096130	 2.714066	-27.184010	 1.826811	 65.589550	 49.192850	-79.080960	 1.398039	 23.660620	-7.474037	 162.786400	 17.188570	 31.456440	-2.025333	-22.297530	-0.514580	-39.868650	 44.894750	 47.066840	-1.270700	 27.844210	 3.423922	 0.229664	 4.183751	-17.855020	 0.697129	 2.296002	-1.706198	-2.889531	 0.261800	-1.850803	-111.285700	-27.692800	 102.769900	 76.732260	 14.495970	-51.941790	 11.762180	-0.096674	 42.379690	-34.147620	-7.330076	 0.027802	-7.536490	 15.808200	-5.743286	-7.309472	 9.090759	 2.206753	 4.963066	-4.014628	-0.346955	 7.185276	-10.023940	-13.830770	 0.959371	 3.156934	-42.516180	 92.850660	 5.661286	-93.230130	-13.225220	-0.595784	 61.222590	-11.754850	-1.081407	-36.296010	 2.645096	-1.195630	 33.174910	-2.900526	 15.879460	-3.929089	 14.433350	 24.844230	-7.317720	-8.239867	-2.131385	 0.447455
 0.986153	 1.251873	-0.104072	 0.979599	-4.046944	-41.428000	-177.898500	 2.355393	-28.486870	 2.518470	-25.482010	 0.697778	 64.548110	 49.816140	-77.564580	 1.398039	 23.660610	-7.474038	 163.951000	 15.310680	 28.547710	-1.562147	-17.553310	 0.496641	-37.513400	 43.685830	 44.042270	-1.200752	 27.351010	 3.380217	 0.209114	 3.898211	-25.067660	 2.781471	 3.709746	-2.312500	-5.135250	-1.493613	-1.686314	-111.852800	-29.931670	 102.652500	 78.169290	 14.424150	-52.240010	 12.188470	-0.098090	 44.683790	-35.768000	-4.127362	-2.848748	-7.529919	 16.031390	-5.699808	-7.334637	 9.133966	 2.216616	 4.963066	-4.014628	-0.346955	 5.712976	-10.521140	-13.975680	 0.673423	 3.322246	-41.839280	 92.928380	 7.423121	-93.694830	-12.729980	 0.375330	 58.855410	-12.177040	-1.075872	-38.977580	-0.856512	-0.289937	 36.491170	-2.899241	 15.780620	-4.100001	 14.446560	 25.131530	-7.400779	-8.239867	-2.131385	 0.447455
 0.986318	 1.253597	-0.103075	 0.768810	-4.062047	-42.050720	-178.000400	 1.776999	-29.069480	 2.435868	-24.453520	 0.371637	 63.957990	 49.925940	-76.742610	 1.398031	 23.660610	-7.474034	 164.659100	 14.195120	 27.591690	-1.327040	-15.040760	 0.880390	-36.723500	 42.914410	 42.691490	-1.184537	 27.238330	 3.369951	 0.365969	 3.773700	-30.748150	 3.743867	 4.063034	-2.457966	-6.297343	-2.197663	-1.614986	-111.943600	-30.265290	 102.604100	 78.365570	 14.294650	-52.078460	 12.459350	-0.109145	 46.146030	-36.568540	-1.096595	-3.400143	-7.477779	 16.388240	-5.669843	-7.345479	 9.081667	 2.208681	 4.963066	-4.014628	-0.346955	 5.478876	-10.424970	-13.574920	 0.188575	 2.685809	-41.955180	 92.927800	 8.018785	-93.877470	-12.437240	 0.907326	 58.155220	-12.466400	-1.006576	-41.183630	-2.824708	-0.659398	 37.312480	-2.897686	 15.685300	-4.264892	 14.459740	 25.408520	-7.481063	-8.239867	-2.131385	 0.447455
